<svg xmlns="http://www.w3.org/2000/svg" width="90" height="76" viewBox="0 0 90 76">
  <path d="M89.974,1.96 C89.964,1.915 89.953,1.87 89.938,1.826 C89.931,1.805 89.929,1.785 89.92,1.765 C89.918,1.76 89.916,1.755 89.913,1.75 C89.91,1.742 89.906,1.736 89.902,1.729 C89.884,1.688 89.863,1.649 89.841,1.609 C89.822,1.576 89.805,1.543 89.783,1.511 C89.762,1.481 89.737,1.452 89.714,1.423 C89.704,1.412 89.696,1.4 89.686,1.388 C89.682,1.384 89.681,1.378 89.677,1.374 C89.675,1.372 89.673,1.371 89.671,1.369 C89.657,1.354 89.642,1.342 89.628,1.327 C89.604,1.304 89.576,1.283 89.55,1.262 C89.515,1.234 89.481,1.204 89.444,1.18 C89.417,1.162 89.386,1.147 89.357,1.132 C89.347,1.125 89.336,1.12 89.327,1.113 C89.317,1.109 89.31,1.103 89.302,1.099 C89.279,1.088 89.256,1.079 89.232,1.07 C89.204,1.058 89.174,1.05 89.146,1.041 C89.096,1.025 89.048,1.013 88.997,1.003 C88.985,1.001 88.976,0.996 88.964,0.994 C88.946,0.992 88.929,0.993 88.91,0.992 C88.896,0.99 88.884,0.987 88.869,0.986 C88.831,0.982444444 88.793,0.982444444 88.754,0.982444444 C88.722,0.984 88.69,0.987 88.656,0.991 C88.612,0.995 88.568,1.001 88.524,1.011 C88.502,1.015 88.479,1.018 88.457,1.025 C88.446,1.028 88.435,1.035 88.423,1.037 C88.415,1.04 88.407,1.044 88.4,1.047 C88.38,1.053 88.359,1.056 88.337,1.064 L0.785,34.848 C0.314,35.028 0.004,35.479 -2.18615051e-05,35.984 C-0.003,36.488 0.303,36.942 0.771,37.129 L28.48,48.193 L37.347,74.185 C37.368,74.245 37.405,74.292 37.432,74.346 C37.454,74.389 37.471,74.432 37.498,74.471 C37.582,74.595 37.68,74.705 37.8,74.789 C37.801,74.79 37.802,74.791 37.803,74.792 C37.842,74.819 37.886,74.831 37.927,74.854 C37.995,74.891 38.062,74.933 38.138,74.957 C38.258,74.996 38.382,75.017 38.506,75.017 C38.506,75.017 38.506,75.017 38.507,75.017 C38.525,75.017 38.544,75.016 38.563,75.015 C38.582,75.014 38.598,75.005 38.616,75.003 C38.713,74.995 38.806,74.975 38.897,74.943 C38.929,74.932 38.961,74.922 38.992,74.909 C39.084,74.869 39.171,74.819 39.252,74.757 C39.265,74.746 39.281,74.739 39.293,74.729 C39.374,74.662 39.447,74.584 39.512,74.495 L51.521,57.394 L78.417,68.131 C78.767,68.272 79.156,68.242 79.48,68.057 C79.804,67.872 80.027,67.548 80.084,67.179 L89.989,2.392 C89.992,2.371 89.99,2.349 89.992,2.328 C89.996,2.288 90,2.249 90,2.21 C90,2.2 90,2.189 90,2.18 C89.999,2.144 89.994,2.11 89.991,2.075 C89.987,2.036 89.982,1.998 89.974,1.96 Z M4.58,36.011 L81.143,6.466 L29.269,45.869 L4.58,36.011 Z M38.309,69.411 L30.904,47.705 L79.437,10.841 L42.661,52.085 C42.655,52.091 42.654,52.1 42.648,52.106 C42.555,52.213 42.486,52.337 42.434,52.471 C42.425,52.494 42.417,52.517 42.41,52.54 C42.402,52.564 42.39,52.587 42.385,52.612 L38.309,69.411 Z M41.226,67.788 L44.435,54.562 L49.182,56.458 L41.226,67.788 Z M77.895,65.282 L45.653,52.41 L86.94,6.108 L77.895,65.282 Z"/>
</svg>
