<svg id="Layer_1" data-name="Layer 1" xmlns="http://www.w3.org/2000/svg" viewBox="0 0 1012.17 584.82"><defs><style>.cls-1{fill:#a5f2c9;}</style></defs><path class="cls-1" d="M176.9,199.18q7.46,115.44,5.9,231.22-.45,32.89-1.65,65.78c-.25,6.87,2.24,15.14,5.69,21a41.37,41.37,0,0,0,19.93,17,39.74,39.74,0,0,0,21.59,2.84c8.22-1.1,18.57-4.64,23.93-11.46,27.12-34.51,52.18-70.39,73.52-108.78a746.48,746.48,0,0,0,52.3-116.81,636.68,636.68,0,0,0,18.34-62.77l-80.37-22.15-1.95,9.27,61.22-24.91-.94-.67,8.44,6.51a17.79,17.79,0,0,1-2.28-2.39l6.52,8.44c-1.76-2.52-2.87-5.36-4.4-8a54,54,0,0,0-19.89-20.06c-20.77-11.8-46.43-7.26-63.22,9-13,12.64-16.23,29.86-17,47.13q-.8,17-1.4,33.91-2.44,68.81-1.86,137.68a292.36,292.36,0,0,0,1.79,33.73c1.13,9,2.23,18,4.66,26.8s6.11,17.13,9.94,25.26l6.51,8.43,8.44,6.52a41.19,41.19,0,0,0,26.57,4.94,39.41,39.41,0,0,0,19.71-8.2c6.64-5.13,13.4-13.09,14.93-21.65,15-83.5,11.4-169.2-12.37-250.81-7.21-24.76-16.52-48.67-26.71-72.34-5.6-13-22.7-20.63-36-20.63-15.79,0-27.15,8.39-36,20.63-12.37,17.15-21.44,36-29,55.72-7.35,19.33-11,39.27-13.65,59.71-5.26,40.52-.28,81.62,7.43,121.5,4.32,22.32,9.82,44.39,15.31,66.44,4,16,18.79,27.72,34.64,29.85,16.08,2.16,33.38-5.28,41.52-19.89Q374.44,374.2,425.15,267.78q14.25-29.94,27.94-60.16l-76.17-10c17.79,71.58,35.6,143.35,45.52,216.54L421,403.13a820,820,0,0,1,7.48,96.62l81.86-11.08Q472.51,382.3,444.15,272.91,436.18,242,429,211c-3.95-17.07-22.57-31.38-40.18-30.59a49.48,49.48,0,0,0-21,5.68c-8.17,4.32-17.56,15.6-19.16,24.91a1863.48,1863.48,0,0,0-24.26,211.5q-1.61,28.9-2.25,57.87c-.47,20.75,16.22,38.25,36.14,40.93,19.75,2.65,40.85-9.58,45.72-29.85l58.34-243,8.13-33.88c2.48-10.31,4-21.62,8-31.46l-4.2,9.95a26.91,26.91,0,0,1,2.37-4.18l-6.52,8.43a21.79,21.79,0,0,1,2.46-2.62l-8.44,6.51a17.74,17.74,0,0,1,3.1-1.87l-10,4.2a10.92,10.92,0,0,1,2.44-.68l-11.08,1.48a13.45,13.45,0,0,1,2.76-.14l-36-20.64c2.05,3.79,3.9,7.65,5.58,11.63l-4.2-10c10.65,26.32,13.38,55.62,17.14,83.54l-1.49-11.08a1582.83,1582.83,0,0,1,13.93,200q.17,28.47-.71,56.94C445,535.31,462,552.84,481.74,555.5c8.89,1.19,18.81.06,26.58-4.94l8.43-6.52a41.69,41.69,0,0,0,10.72-18.39c24.86-61.14,37.44-126,49.56-190.63l10.74-57.33H507.41c13.61,41.63,22.44,84.56,28.29,127.92l-1.48-11.07c7.3,54.9,10,110.24,12.57,165.52.52,11,4.3,21.56,12.21,29.47,7.22,7.23,19.08,12.67,29.46,12.21,22.56-1,41.7-18.31,41.68-41.68-.1-101.67-8.54-203.07-24-303.54q-6.39-41.47-14.56-82.64c-1.86-9.4-10.77-20.47-19.15-24.9A42.93,42.93,0,0,0,545.84,144c-8.74,1.18-17.78,4.77-23.93,11.47C515,163,508.34,174.3,509.71,185l32.38,253.09,9.11,71.18a41.66,41.66,0,0,0,20.64,36,42.15,42.15,0,0,0,42.06,0c19.81-11.26,34.8-29.45,43.9-50.15a510.88,510.88,0,0,0,24-65.9A494.78,494.78,0,0,0,700.63,298c.17-26.45-2.43-52.61-6.26-78.76-1.34-9.21-11.19-20.69-19.15-24.9a42.86,42.86,0,0,0-26.57-4.94c-19.38,2.6-37.36,20.15-36.13,40.92q7.63,128.78,3.17,257.88-1.29,36.7-3.56,73.37L694,550.5,643.64,291.43,629.4,218.11l-76.17,32.11,103.84,222.4,6.52,8.44,8.43,6.51a41.27,41.27,0,0,0,26.57,4.95,39.51,39.51,0,0,0,19.72-8.21c6.43-5,13.76-13.24,14.93-21.64a830.08,830.08,0,0,0,7.82-146.18c-1.83-49-7.66-97.8-15.34-146.2-4.11-25.89-8.91-51.66-14.13-77.35-1.91-9.42-10.73-20.46-19.15-24.91a43,43,0,0,0-26.57-4.94c-8.74,1.17-17.78,4.77-23.93,11.46-7,7.65-13.33,18.67-12.2,29.47l29.18,279,8.28,79.15c1.19,11.35,3.86,21.12,12.2,29.47,7.23,7.23,19.09,12.67,29.47,12.2,10.78-.48,22-4,29.47-12.2,7.77-8.47,11.4-17.95,12.2-29.47l20-286.15,5.65-80.77-81.86,11.08a664.77,664.77,0,0,1,18.33,90l-1.49-11.07c8.57,64.51,8.81,129.73,6.54,194.67-.65,18.71-1.51,37.41-2.42,56.1-.49,9.91,4.89,22.76,12.2,29.47A42.89,42.89,0,0,0,751.43,477c20.27,2.72,40.15-9.71,45.72-29.85l56.68-205,16.23-58.72H789.7a125.72,125.72,0,0,1,5.35,23.22l-1.49-11.08c2.26,17.65,2.68,35.59,3.44,53.35q1.17,27.27,1.72,54.57,1.1,55.57-.43,111.16-.87,31.26-2.56,62.5c-.53,9.88,4.93,22.79,12.21,29.47A42.86,42.86,0,0,0,831.87,518c19,2.54,41.94-9.42,45.72-29.85a2139,2139,0,0,0,30-232.07q2.32-31.72,3.65-63.52l-77.65,21A124,124,0,0,1,840,226.34l-4.2-10c5.32,12.84,8.32,26.31,10.23,40l-1.49-11.08c4.84,36.5,6.51,73.58,9.51,110.27l9.36,114.63c.87,10.71,3.92,21.86,12.2,29.46a42.85,42.85,0,0,0,23.93,11.46c20,2.69,40.57-9.62,45.72-29.85,18.76-73.58,27.48-149.42,33.82-225,1.71-20.47,3.25-41,4.79-61.46H900.55a1652,1652,0,0,1,14.11,252.17c-.43,20.75,16.19,38.24,36.13,40.92,19,2.55,42-9.41,45.73-29.85,14.21-77.12,18.74-155.45,23.63-233.58l4-64.13-81.86,11.08q5.21,31.23,9.42,62.61L950.24,223a1953.57,1953.57,0,0,1,17.09,235.79,43.21,43.21,0,0,0,12.21,29.47c7.22,7.23,19.08,12.67,29.46,12.2,22.36-1,42-18.31,41.67-41.67A1949.72,1949.72,0,0,0,1033.85,225c-3.35-25.28-7-50.5-11.17-75.65-1.55-9.29-11-20.61-19.15-24.9a43,43,0,0,0-26.57-5c-21.2,2.85-34.82,20-36.14,40.93-5,79.94-8.1,160.35-18.72,239.8l1.49-11.08q-3.18,23.5-7.44,46.84L998,447.05a1650.69,1650.69,0,0,0-14.11-252.17,31.3,31.3,0,0,0-3.59-16,31.13,31.13,0,0,0-8.62-13.41c-7.22-7.23-19.08-12.67-29.46-12.21-10.78.48-22,4-29.47,12.21-7.79,8.49-11.34,17.93-12.2,29.46-4,53.19-8,106.4-15.12,159.28l1.49-11.08c-5.28,39.06-12.26,77.87-22,116.08l81.85,11.08q-4.71-57.81-9.44-115.62c-3.27-40.09-5.32-80.51-10.92-120.36-3.09-22-9.65-43.36-20.82-62.72-8.86-15.36-29.71-24.76-47.06-19.15-18,5.84-29.79,21.16-30.59,40.18q-3.87,92.06-16.08,183.48L813.35,365q-6.83,50.7-16.13,101l81.86,11.08A2358.7,2358.7,0,0,0,879.7,235c-1.2-24.55-1.62-50.31-9.64-73.75-5.75-16.83-21.24-31.45-40.18-30.6-18.4.83-35.14,12.35-40.18,30.6L733,366.23,716.78,425,798.64,436c4.52-92.59,6.51-185-7.78-276.93a647.1,647.1,0,0,0-16.15-74.92A41.71,41.71,0,0,0,729,54.34c-21.31,2.86-34.67,20-36.14,40.92l-20,286.16-5.65,80.76h83.34l-29.18-279L713.08,104l-81.85,11.07c7.43,36.59,14,73.35,19,110.35l-1.49-11.08c10.31,77.34,13.58,155.83,3.22,233.35l1.49-11.08-.54,3.88L729,430.56,625.2,208.15c-4-8.58-15.87-17.09-24.91-19.15a43.16,43.16,0,0,0-27.13,2.1c-8,3.38-15.75,9.15-19.93,17.05-5.46,10.34-6.44,20.6-4.2,32.11l50.34,259.08,14.25,73.32c1.83,9.39,10.8,20.49,19.15,24.9a43,43,0,0,0,26.57,5c21.19-2.85,34.85-20,36.14-40.93q7.93-128.76,3.77-257.88-1.2-36.7-3.39-73.37L614,241.41c.26,1.82.52,3.65.77,5.47L613.3,235.8a449.22,449.22,0,0,1,0,118.92l1.49-11.08A467.93,467.93,0,0,1,583,459.76l4.2-9.95c-3.51,8.31-7.49,16.34-13,23.53l6.52-8.43a63.06,63.06,0,0,1-10.6,10.5l8.44-6.51a70,70,0,0,1-6.72,4.35l62.7,36L602.16,256.14,593.05,185,511.2,196q11.87,60,20,120.65l-1.49-11.08a1936.17,1936.17,0,0,1,16.18,197.61q.86,28.41.87,56.84h83.35c-3.77-80.33-8-161.16-25-240a641.51,641.51,0,0,0-17.38-64.52c-5.51-16.87-21.41-31.44-40.18-30.6a49.53,49.53,0,0,0-21,5.69c-8.29,4.39-17.4,15.54-19.15,24.91-12.22,65.2-22.6,131.26-41.69,194.9q-8.09,26.94-18.62,53.06L529,514.57c2.95-98.21-3.7-196.25-18.32-293.38-4.19-27.9-9.71-54.6-23.3-79.73-6.93-12.79-21.68-20.63-36-20.64-20.28,0-40.3,11.55-49.1,30.16-5.68,12-8.13,24.69-11.21,37.54l-16.27,67.77L342.22,391.82l-18.6,77.45,81.86,11.08a1762.45,1762.45,0,0,1,15.16-193.93l-1.49,11.08q4.35-32.26,9.86-64.36H348.64Q374,342.75,409.07,449.79q10.05,30.65,20.85,61c3.51,9.88,9.48,19.79,19.15,24.9a43,43,0,0,0,26.57,4.95c20.05-2.7,36.45-20.06,36.14-40.93C510.5,413.46,493.92,328,474.1,244.26c-5.43-22.95-11.12-45.85-16.81-68.75-4-16-18.8-27.72-34.64-29.85a39.86,39.86,0,0,0-21.6,2.85c-7.63,3.22-16.37,9.21-19.93,17.05Q332.66,272.44,277.33,376q-15.82,29.66-32.2,59l76.16,10c-7.82-31.44-15.61-62.94-20.07-95.07L302.71,361c-3.64-27.16-4.74-54.58-1.18-81.8l-1.48,11.08a222.33,222.33,0,0,1,14.68-54.94l-4.2,10a203.32,203.32,0,0,1,22.22-39.45h-72l2.22,5.21-4.2-10A525.31,525.31,0,0,1,294.9,332.78l-1.49-11.08a501.45,501.45,0,0,1,0,132.49l1.49-11.08q-1.5,10.88-3.43,21.67l76.16-10c-.53-1.1-1.05-2.22-1.53-3.35l4.2,9.95a110.82,110.82,0,0,1-7.37-27.67l1.49,11.08c-2.21-17.11-1.85-34.48-1.9-51.69q-.07-26.94.31-53.88t1.25-53.87q.45-14,1-27.93c.35-8.59.17-17.48,1.28-26l-1.48,11.08a25.61,25.61,0,0,1,1.59-5.36l-4.2,10a21.28,21.28,0,0,1,2.36-3.84l-6.51,8.43a13.51,13.51,0,0,1,1.55-1.57l-8.43,6.52a14.62,14.62,0,0,1,2.8-1.72l-9.95,4.2a9.67,9.67,0,0,1,2.18-.61L335.21,260a15.77,15.77,0,0,1,3.76.05l-11.08-1.48a10.18,10.18,0,0,1,2.31.66l-9.95-4.2a9.32,9.32,0,0,1,1.87,1.05l-8.44-6.52a15.13,15.13,0,0,1,2.17,2.14l-6.52-8.44c1.76,2.47,2.84,5.26,4.34,7.88,5.06,8.86,11.49,14.42,19.61,20.3,10.51,7.61,25.83,6.85,37.09,2.1s21.49-14.5,24.13-27l1.95-9.27c2.32-11,1.59-22.21-4.2-32.11-5.06-8.64-15-16.89-24.9-19.15-10.67-2.43-22.65-1.9-32.11,4.2-8.95,5.77-16.63,14.27-19.16,24.91A651.78,651.78,0,0,1,282.6,317.23l4.2-10c-24.54,58-57,112.25-95.44,162.08l6.52-8.44q-2.25,2.91-4.52,5.8l71.13,29.46q4.15-115.59-.72-231.26-1.39-32.88-3.53-65.74c-.72-11.11-4.16-21.42-12.21-29.47-7.22-7.23-19.08-12.67-29.46-12.2-10.78.48-22,4-29.47,12.2-7.2,7.85-12.91,18.46-12.2,29.47Z" transform="translate(-46.1 -49.67)"/><path class="cls-1" d="M462.42,171V271.33a43,43,0,0,0,12.2,29.47c7.23,7.23,19.09,12.67,29.47,12.21,22.58-1,41.67-18.31,41.67-41.68V171a43,43,0,0,0-12.2-29.46c-7.23-7.23-19.09-12.67-29.47-12.21-22.58,1-41.67,18.31-41.67,41.67Z" transform="translate(-46.1 -49.67)"/><path class="cls-1" d="M614.49,298.82A707.51,707.51,0,0,0,636.1,137.06l-77.66,21c10.77,18,21.23,36.18,29.44,55.49l-4.2-10c5.67,13.63,10.1,27.69,12.2,42.34l-1.49-11.08a128.89,128.89,0,0,1,1.08,19c-.4,21.8,19.45,42.66,41.67,41.67,22.92-1,41.24-18.31,41.67-41.67.93-50.21-23.32-96-48.4-137.89-9.14-15.25-29.51-24.84-47.06-19.15-17.72,5.73-30.29,21.22-30.6,40.18A656.74,656.74,0,0,1,547,213.67l1.49-11.08a670.71,670.71,0,0,1-14.4,74.07c-2.68,10.62-1.37,22.59,4.2,32.11,5.06,8.65,15,16.89,24.91,19.15,10.67,2.43,22.64,1.91,32.11-4.2,9-5.82,16.45-14.24,19.15-24.9Z" transform="translate(-46.1 -49.67)"/><path class="cls-1" d="M411.62,322.76l.09-70.8.05-34.91c0-14.28-.1-28.43-3.47-42.45l-80.37,22.16q17,57.62,30.59,116.17c4.93,21.25,30.45,35.84,51.26,29.11,22.21-7.19,34.38-28.49,29.11-51.27Q425.3,232.26,408.29,174.6a43.44,43.44,0,0,0-19.15-24.9c-8.93-5.23-22.1-7.44-32.11-4.2C335,152.64,322.47,174,327.92,196.76a72.36,72.36,0,0,1,1.34,7.14l-1.49-11.08c1.13,10.34.65,20.84.63,31.21l0,32.91-.08,65.82a43,43,0,0,0,12.2,29.47c7.23,7.23,19.09,12.67,29.47,12.21,22.6-1,41.64-18.31,41.67-41.68Z" transform="translate(-46.1 -49.67)"/><path class="cls-1" d="M733.66,340.19l3.11,176.51,77.65-21q-4.24-8.39-7.92-17l4.2,9.95a239.43,239.43,0,0,1-16.3-59.9l1.49,11.08c-3.46-27.39,1.8-58-15.07-82-4.09-5.8-8.73-11.3-15-15a41.22,41.22,0,0,0-26.58-4.94c-15.63,2.1-31,13.78-34.64,29.85Q685.36,452.54,669.39,538l81.85,11.08a1029.69,1029.69,0,0,1,3.2-117.7c.86-10.1-5.26-22.52-12.2-29.47-7.23-7.22-19.09-12.67-29.47-12.2-10.78.48-21.95,4-29.47,12.2-7.83,8.54-11.22,17.92-12.2,29.47a1029.69,1029.69,0,0,0-3.2,117.7c.63,20.83,15.38,38.14,36.13,40.93,19,2.55,41.91-9.42,45.72-29.85q16-85.49,35.27-170.29l-76.17,10a40.24,40.24,0,0,1,4.09,7.27l-4.2-10A50.32,50.32,0,0,1,711.46,408L710,397c1.13,9.73.57,19.58,1.24,29.35a303.82,303.82,0,0,0,5.71,41.5c5.08,24.32,14.33,47.81,25.54,69.93l6.51,8.43a31.34,31.34,0,0,0,13.41,8.62c8.29,3.49,18.34,4.94,27.14,2.1,17.29-5.6,30.92-21.32,30.59-40.19L817,340.19a43.27,43.27,0,0,0-12.2-29.47c-7.23-7.23-19.09-12.67-29.47-12.2-22.25,1-42.08,18.32-41.67,41.67Z" transform="translate(-46.1 -49.67)"/><path class="cls-1" d="M488.11,395.79c-3.76,48.71-.52,97.3,7.62,145.43,1.64,9.7,11,20.13,19.15,24.9,8.93,5.23,22.09,7.45,32.11,4.2s19.81-9.51,24.9-19.15c5.53-10.46,6.17-20.47,4.2-32.11q-1.64-9.66-3-19.38l1.48,11.07a551.68,551.68,0,0,1-3.16-115c.78-10.16-5.21-22.47-12.21-29.47-7.23-7.22-19.09-12.67-29.47-12.2-10.77.48-21.95,4-29.46,12.2-7.8,8.5-11.32,17.94-12.21,29.47Z" transform="translate(-46.1 -49.67)"/><path class="cls-1" d="M355.82,374.2q-1.19,63.8,1,127.6c.71,20.83,15.31,38.13,36.13,40.93,19.05,2.56,41.83-9.43,45.72-29.85l9-47c2.12-11.17,1.7-22-4.2-32.11-5.06-8.65-15-16.89-24.91-19.16-10.67-2.43-22.64-1.9-32.11,4.21-8.7,5.61-17.14,14.34-19.15,24.9l-8.95,47,81.85,11.08q-2.18-63.78-1-127.6c.4-21.81-19.45-42.67-41.67-41.68-22.92,1-41.24,18.31-41.67,41.68Z" transform="translate(-46.1 -49.67)"/><path class="cls-1" d="M209.42,409c-.33,39.11,3.55,78.13,10.43,116.61C222.07,538.1,233,548,244,552.66c12,5.08,25.65,4.77,37.09-2.1,34.71-20.86,62.09-51.22,75.42-89.72H276.12q5.64,24.54,9.1,49.51l-1.49-11.08q2.94,22,4.16,44.08c1,17.72,12.19,36,30.59,40.19,17.6,4,38.11-2.46,47.06-19.15,15.69-29.24,21.2-62.23,28.52-94.22l-76.17,10a138.88,138.88,0,0,1,14.16,26.3l-4.2-9.95C334.72,513,340.34,530,348.31,546c4.68,9.41,10.67,17.57,17.2,25.81,7.05,8.89,15.36,15.4,24.41,22.29l9.95,4.2a31.55,31.55,0,0,0,16.62.74c9.35-1.25,16.86-5,23.93-11.46,23.49-21.44,34.7-51.18,42.7-81.15H402.75c3.2,17.25,6.28,34.53,9.64,51.74a264.72,264.72,0,0,0,17.35,55.7c5.63,13,22.67,20.64,36,20.64,15.69,0,27.27-8.35,36-20.64,23.09-32.57,23.44-74.93,27.31-113.12l-77.65,21,35.81,73.43c4.38,9,15.56,16.58,24.91,19.15,10,2.75,23.25,1.51,32.11-4.2s16.73-14.27,19.15-24.9c2.59-11.4.93-21.59-4.2-32.11L523.32,479.7l-6.51-8.43a31.22,31.22,0,0,0-13.42-8.62c-8.28-3.49-18.34-4.94-27.13-2.1a49.64,49.64,0,0,0-18.39,10.72c-8.43,7.74-11.1,18.64-12.2,29.46-1.46,14.41-2.69,28.87-4.55,43.23l1.49-11.08c-1.5,11-3.73,21.9-7.88,32.28l4.2-9.95a86.86,86.86,0,0,1-9.19,16.58h72l-.74-1.72,4.2,10c-6.14-14.72-9.75-30.2-12.75-45.82-3.19-16.63-6.2-33.3-9.29-50l-4.2-10a31.61,31.61,0,0,0-10.73-11.69c-7-5.43-16.13-9.35-25.25-8.95-18.29.82-35.31,12.34-40.19,30.6-2.74,10.26-5.61,20.48-9.65,30.32l4.2-10A101.64,101.64,0,0,1,385,526.21l6.52-8.44a89.32,89.32,0,0,1-10.08,10.86l50.5-6.52-1.26-1,8.43,6.52a87.77,87.77,0,0,1-14.71-14.82l6.52,8.44a126.93,126.93,0,0,1-15-26.89l4.2,10C410.71,482,404,458,389.86,438.06c-4.1-5.8-8.72-11.3-14.95-14.95a41.2,41.2,0,0,0-26.57-4.94c-15.66,2.1-31,13.78-34.65,29.85C308,472.79,304,498.84,294.15,522.4l4.2-9.95c-1.46,3.36-3,6.64-4.78,9.87l77.66,21a617.9,617.9,0,0,0-14.75-104.67c-3.92-17.07-22.58-31.38-40.18-30.59a49.39,49.39,0,0,0-21,5.69c-9.6,5.07-15.74,15-19.15,24.9-.77,2.23-1.61,4.42-2.51,6.6l4.2-10a112.86,112.86,0,0,1-14.12,23.85l6.52-8.44a139.77,139.77,0,0,1-24.51,24.16l8.44-6.52A169.34,169.34,0,0,1,239,478.59l61.21,24.91q-2.25-12.62-4-25.31l1.49,11.08a574.06,574.06,0,0,1-5-80.23,42.88,42.88,0,0,0-12.21-29.47c-7.23-7.23-19.09-12.67-29.47-12.21-22.73,1-41.47,18.31-41.67,41.68Z" transform="translate(-46.1 -49.67)"/><path class="cls-1" d="M775.37,430.88a919.23,919.23,0,0,0,28.39,88.74c3.3,8.75,7.37,15.8,14.93,21.65,7,5.43,16.13,9.35,25.25,8.94a49.43,49.43,0,0,0,21-5.69c8-4.25,17.7-15.65,19.15-24.9q3-18.9,6-37.77c1.68-10.36,2.44-21.58,6.34-31.41l-4.2,10a33.18,33.18,0,0,1,3.43-5.95l-6.52,8.44a30.27,30.27,0,0,1,4.12-4.12l-8.43,6.51,1.26-.91-61.22-24.91,30.46,103.6c6.5,22.12,29,34.47,51.26,29.11,25.85-6.23,35.82-31.25,47.25-52.19q12.76-23.39,25.52-46.76h-72l.75,1.75L904,465c6.28,15,10.65,30.74,15.4,46.28q7.41,24.26,14.83,48.53c5.17,16.92,21.67,31.42,40.18,30.59,19-.85,34.32-12.46,40.18-30.59C1027.17,521,1028,479.48,1028.14,439l-81.85,11.08a582.24,582.24,0,0,1,29,98.83c1.86,9.41,10.77,20.48,19.15,24.9A42.93,42.93,0,0,0,1021,578.8c8.74-1.18,17.78-4.77,23.93-11.46,7-7.66,13.32-18.67,12.2-29.47-4.58-44.17-15-86.92-26.22-129.77l-76.17,32.11q5,10.43,9.52,21.06l-4.2-10A470.8,470.8,0,0,1,976.24,496c3.12,10.2,9.85,19.46,19.15,24.9,8.93,5.23,22.1,7.44,32.11,4.2,21-6.8,35.9-28.92,29.11-51.26a754.41,754.41,0,0,0-48-119.07c-4.52-9-15.44-16.55-24.9-19.15-10-2.75-23.26-1.51-32.11,4.2s-16.73,14.28-19.15,24.9c-2.58,11.33-1,21.69,4.2,32.11q10.75,21.4,20.1,43.47l-4.21-9.95A682.25,682.25,0,0,1,976.24,496l80.37-22.16a542.33,542.33,0,0,0-29.89-75.65c-4.12-8.59-15.77-17.07-24.9-19.15a43,43,0,0,0-27.14,2.1,41.75,41.75,0,0,0-24.13,49.16c9.13,34.73,18.23,69.55,23.13,105.18l-1.48-11.08q.88,6.75,1.6,13.51l81.85-11.08a581.6,581.6,0,0,0-29-98.83c-3.9-10-9.18-19.64-19.15-24.9a42.93,42.93,0,0,0-26.57-4.95A41.63,41.63,0,0,0,944.8,439c-.07,23.74-.24,47.51-3.36,71.07L942.92,499a227,227,0,0,1-8.67,38.64h80.36c-10.91-35.7-20.36-72.19-35.18-106.51-5.61-13-22.69-20.64-36-20.64-14.35,0-29,7.86-36,20.64l-21.27,39-10.4,19.05c-3.21,5.89-6.06,12.23-9.92,17.72l6.52-8.43a17.21,17.21,0,0,1-2.61,2.58l8.43-6.51-1.09.65,10-4.21a8.6,8.6,0,0,1-2.57.83l51.26,29.11-30.46-103.6a41.17,41.17,0,0,0-24.13-27c-11.24-4.74-26.59-5.52-37.08,2.1-9.24,6.7-13.85,10.69-20.34,20-3.4,4.88-5.49,10.3-7.62,15.9-2.32,6.08-3.24,12.42-4.29,18.82q-4.14,25.15-8.09,50.35h80.37a916.28,916.28,0,0,1-28.39-88.73,43,43,0,0,0-19.16-24.91c-8.93-5.23-22.09-7.44-32.11-4.2-21.66,7-35.07,28.68-29.1,51.26Z" transform="translate(-46.1 -49.67)"/><path class="cls-1" d="M282.66,232.34l1.94-100.82-77.66,21,45.32,101.93C257.4,266,271,272.8,282.7,274.37c13.79,1.86,24.56-2.63,35-11.46,21.54-18.21,24.44-47.78,26.39-73.92,1.52-20.35,1.87-40.81,2.64-61.2l-71.13,29.47q2.91,3.47,5.69,7l-6.52-8.44C290,175.73,301.15,198,310.86,221l-4.2-10c3.29,7.83,6.44,15.71,9.58,23.6a41.77,41.77,0,0,0,29.11,29.11c14.63,4,29.69-.42,40.54-10.72,22.46-21.32,34.27-48.53,45.64-76.66H351.17a194.86,194.86,0,0,1,12.56,46.19c1.74,12.36,13.44,22.5,24.12,27,12,5.06,25.71,4.82,37.09-2.1A135,135,0,0,0,457.45,220c9-10.5,16.88-21.86,25.27-32.83l-6.51,8.44c6.58-8.52,13.66-16.55,22.13-23.25l-8.43,6.51q1.83-1.4,3.72-2.73l-57-14.95q5.08,10.07,9.53,20.44l-4.21-10a313.58,313.58,0,0,1,20.17,68.53c1.67,9.71,11,20.12,19.15,24.9,8.93,5.23,22.1,7.44,32.11,4.2s19.81-9.51,24.91-19.15c5.52-10.45,6.2-20.49,4.2-32.11-6-34.54-18.13-67.69-33.89-98.93-9.53-18.88-39.45-27.4-57-15-11.1,7.87-21.19,16.38-29.82,26.88-8.33,10.12-15.88,20.83-23.88,31.21l6.52-8.43c-6.27,8.06-13,15.66-21,22.05l8.44-6.51a98.43,98.43,0,0,1-8.92,6.12l61.21,24.91a194.13,194.13,0,0,0-12.56-46.19l-4.2-10a31.52,31.52,0,0,0-10.73-11.69c-7-5.43-16.12-9.36-25.25-9a49.35,49.35,0,0,0-21,5.69c-10.07,5.32-15.11,14.91-19.15,24.91-1.39,3.42-2.78,6.84-4.21,10.25l4.2-9.95c-5.48,12.95-11.71,25.5-20.33,36.68l6.51-8.44A110.31,110.31,0,0,1,327,194.05l69.65,18.38c-7.95-20-15.88-40-25.51-59.23a281.27,281.27,0,0,0-36.56-54.87l-8.44-6.52-10-4.2A41.4,41.4,0,0,0,289,89.71c-15.57,6.57-25,21.22-25.62,38.08-1,25.51-.95,51.32-4.21,76.67l1.49-11.08c-.85,6.16-1.85,12.2-4.26,18l4.21-9.95a37.56,37.56,0,0,1-3.84,6.46l6.51-8.43a36.65,36.65,0,0,1-4.52,4.55l65.44,8.43L278.91,110.49l-6.52-8.44A31.2,31.2,0,0,0,259,93.44c-8.28-3.5-18.34-5-27.13-2.1-17.76,5.74-30.23,21.21-30.6,40.18l-1.93,100.82C198.9,254.15,218.78,275,241,274c22.93-1,41.22-18.3,41.67-41.67Z" transform="translate(-46.1 -49.67)"/><path class="cls-1" d="M83.7,162.24a1272.37,1272.37,0,0,1,44.65,203.17l-1.49-11.08q5.92,44.52,8.66,89.37c.67,11.08,4.19,21.45,12.2,29.47,7.23,7.23,19.09,12.67,29.47,12.2,10.78-.48,21.95-4,29.47-12.2l6.51-8.44a41.44,41.44,0,0,0,5.69-21,1821.64,1821.64,0,0,0,8.28-275.45q-1.78-38.68-5.22-77.25l-81.86,11.08c4.5,29.32,9,58.65,13,88.05l-1.49-11.08c9.16,68.21,15.53,137.12,11.93,206-1,19.56-3,39-5.54,58.43l1.49-11.07c-6.1,45.08-15,90.4-12.92,136.1.5,11,4.32,21.57,12.21,29.46,7.23,7.23,19.09,12.67,29.47,12.21,23.15-1,41-18.31,41.67-41.67,2.08-67.86,2.92-138.74-23.68-202.52a31.35,31.35,0,0,0-7.46-14.18A31.45,31.45,0,0,0,187,341.06c-8.93-5.23-22.09-7.44-32.11-4.2S135.09,346.37,130,356l-4.2,10a41.84,41.84,0,0,0,0,22.15q.54,3.88,1.07,7.77l-1.49-11.08a802.67,802.67,0,0,1,5.06,159.9h83.35A1041.33,1041.33,0,0,0,174.16,295,43.33,43.33,0,0,0,155,270.11c-8.93-5.23-22.09-7.44-32.11-4.2s-19.81,9.51-24.9,19.15c-5.53,10.46-6.19,20.49-4.2,32.11Q104.49,379.66,113,442.49l-1.49-11.08q4.73,35.28,8.77,70.65c1.3,11.4,3.78,21,12.2,29.46,7.23,7.23,19.09,12.67,29.47,12.21,10.78-.48,22-4,29.47-12.21,7.77-8.47,11.39-17.94,12.2-29.46,3.45-48.76-.69-98.05-11-145.81-4.79-22.31-11.15-44.25-17.49-66.15-6.23-21.52-12.22-43.12-18.79-64.53-8.11-26.37-18.27-52.61-32.78-76.17-10.93-17.74-32.79-25.17-52-17.05s-29.18,28.79-24.12,49.17a952.16,952.16,0,0,1,19.3,100.73l-1.49-11.07A922.52,922.52,0,0,1,66.42,507c-1.22,9.83,5.54,22.79,12.21,29.46,7.22,7.23,19.08,12.67,29.46,12.21,10.78-.48,22-4,29.47-12.21l6.52-8.43a41.53,41.53,0,0,0,5.68-21c11.3-91.16,8.23-183-6.69-273.58q-6.13-37.31-15.3-74L51.61,191.47a238.33,238.33,0,0,1,16.06,31.17l-4.2-10c13.48,32,21.67,66.27,31.3,99.57,9.9,34.2,19.25,68.41,24,103.77l-1.49-11.08a483.66,483.66,0,0,1,2.93,97.12h83.34q-11.85-103.9-29.42-207L93.79,317.17a1008.13,1008.13,0,0,1,30,142.6l-1.49-11.08q6.38,47.79,8.1,96c.39,10.92,4.39,21.65,12.21,29.47,7.22,7.23,19.08,12.67,29.46,12.2,10.78-.48,22-4,29.47-12.2,7.77-8.46,11.42-18,12.21-29.47,4.1-59.87.81-119.39-7.63-178.74L125.8,388.12C135.53,411.47,141.6,436,145,461l-1.49-11.08c5.2,39.31,4.16,79,2.94,118.55h83.35c-1.19-26.43,1.41-52.74,4.91-78.9l-1.49,11.08c3.9-28.73,8.64-57.36,11.39-86.23A744.14,744.14,0,0,0,247.77,335c-.65-56-6.89-111.62-14.39-167-4-29.4-8.45-58.72-12.95-88C219,70.68,209.29,59.25,201.28,55a43,43,0,0,0-26.57-5c-19,2.55-38,20.23-36.14,40.93a1817.83,1817.83,0,0,1,3.5,275.51q-2.44,38.65-6.55,77.19h83.34a1308.85,1308.85,0,0,0-36.8-239.17q-8.16-32.44-18-64.44c-3.13-10.21-9.84-19.46-19.15-24.91-8.94-5.23-22.1-7.44-32.11-4.2-21,6.79-35.95,28.94-29.11,51.26Z" transform="translate(-46.1 -49.67)"/></svg>