<svg xmlns="http://www.w3.org/2000/svg" width="600" height="600" viewBox="0 0 600 600">
  <g fill="none" fill-rule="evenodd">
    <g transform="translate(7 48)">
      <g stroke="#EDEDED" transform="translate(73 32)">
        <circle cx="220" cy="220" r="47"/>
        <circle cx="220" cy="220" r="98"/>
        <circle cx="220" cy="220" r="148"/>
        <circle cx="220" cy="220" r="198"/>
      </g>
      <text fill="#000" font-family="UntitledSansTest-Regular, Untitled Sans Test" font-size="14">
        <tspan x="264.192" y="14">Strategy</tspan>
      </text>
      <text fill="#000" font-family="UntitledSansTest-Regular, Untitled Sans Test" font-size="14">
        <tspan x="417.314" y="85">Roadmapping</tspan>
      </text>
      <text fill="#000" font-family="UntitledSansTest-Regular, Untitled Sans Test" font-size="14">
        <tspan x="513.756" y="239">Research </tspan> <tspan x="539.619" y="256" font-family="LucidaGrande, Lucida Grande">&amp;</tspan> <tspan x="511.81" y="273">Discovery</tspan>
      </text>
      <text fill="#000" font-family="UntitledSansTest-Regular, Untitled Sans Test" font-size="14">
        <tspan x="436.477" y="428">Design</tspan>
      </text>
      <text fill="#000" font-family="UntitledSansTest-Regular, Untitled Sans Test" font-size="14">
        <tspan x="249.477" y="497">Development</tspan>
      </text>
      <text fill="#000" font-family="UntitledSansTest-Regular, Untitled Sans Test" font-size="14">
        <tspan x="112.28" y="428">QA</tspan>
      </text>
      <text fill="#000" font-family="UntitledSansTest-Regular, Untitled Sans Test" font-size="14">
        <tspan x="4.771" y="239">Documentation </tspan> <tspan x="50.619" y="256" font-family="LucidaGrande, Lucida Grande">&amp;</tspan> <tspan x="60.381" y="256"> </tspan> <tspan x="27.738" y="273">Training</tspan>
      </text>
      <text fill="#000" font-family="UntitledSansTest-Regular, Untitled Sans Test" font-size="14">
        <tspan x="59.866" y="85">Measure </tspan> <tspan x="119.576" y="85" font-family="LucidaGrande, Lucida Grande">&amp;</tspan> <tspan x="129.338" y="85"> Report</tspan>
      </text>
    </g>
    <path fill="#00F" fill-opacity=".15" stroke="#000" stroke-width="2" d="M300,253 C328.5,252.5 328.5,242 363,242 C397.5,242 488,250.5 503.5,300 C519,349.5 500,421 444,444.5 C388,468 323.5,332 300,329 C276.5,326 283,335 262.5,338.5 C242,342 215,315.5 208.5,300 C202,284.5 208,240.5 230,233.5 C252,226.5 271.5,253.5 300,253 Z"/>
    <path fill="#00F" fill-opacity=".15" stroke="#000" stroke-width="2" d="M300,132 C338,131 402.5,126.5 435.5,165.5 C468.5,204.5 414.5,282.5 403.5,299.5 C392.5,316.5 367.5,350 346.5,347.5 C325.5,345 327.5,312.5 300,312 C272.5,311.5 258.5,362 236.5,364 C214.5,366 188,338 172.5,300 C157,262 141.5,215 173.5,173.5 C205.5,132 262,133 300,132 Z"/>
    <path fill="#00F" fill-opacity=".65" stroke="#000" stroke-width="4" d="M300,253 C328.5,252.5 328.5,242 363,242 C377.687611,242 405.334392,243.72182 432.244139,249.4417 C421.779531,272.327894 408.390337,291.942207 403.5,299.5 C392.5,316.5 367.5,350 346.5,347.5 C325.5,345 327.5,312.5 300,312 C285.952471,311.74459 275.427582,324.796932 265.55957,337.894542 C264.61202,338.110594 263.594492,338.313136 262.5,338.5 C242,342 215,315.5 208.5,300 C202,284.5 208,240.5 230,233.5 C252,226.5 271.5,253.5 300,253 Z"/>
  </g>
</svg>
